<svg xmlns:xlink="http://www.w3.org/1999/xlink" xmlns="http://www.w3.org/2000/svg" version="1.1" viewBox="0.0 0.0 1278.8477690288714 1302.3727034120734" fill="none" stroke="none" stroke-linecap="square" stroke-miterlimit="10"><clipPath id="p.0"><path d="m0 0l1278.8478 0l0 1302.3727l-1278.8478 0l0 -1302.3727z" clip-rule="nonzero"/></clipPath><g clip-path="url(#p.0)"><path fill="#000000" fill-opacity="0.0" d="m0 0l1278.8478 0l0 1302.3727l-1278.8478 0z" fill-rule="evenodd"/><path fill="#000000" fill-opacity="0.0" d="m78.69554 657.79004l0 0c0 -317.829 250.8545 -575.48035 560.2992 -575.48035l0 0c148.60059 0 291.11487 60.6308 396.1914 168.55429c105.076416 107.92348 164.10779 254.29915 164.10779 406.92603l0 0c0 317.82898 -250.85449 575.48035 -560.2992 575.48035l0 0c-309.4447 0 -560.2992 -257.65137 -560.2992 -575.48035z" fill-rule="evenodd"/><path stroke="#000000" stroke-width="24.0" stroke-linejoin="round" stroke-linecap="butt" d="m78.69554 657.79004l0 0c0 -317.829 250.8545 -575.48035 560.2992 -575.48035l0 0c148.60059 0 291.11487 60.6308 396.1914 168.55429c105.076416 107.92348 164.10779 254.29915 164.10779 406.92603l0 0c0 317.82898 -250.85449 575.48035 -560.2992 575.48035l0 0c-309.4447 0 -560.2992 -257.65137 -560.2992 -575.48035z" fill-rule="evenodd"/><path fill="#000000" fill-opacity="0.0" d="m360.17584 657.7897l0 0c0 -158.51874 124.83148 -287.0236 278.8189 -287.0236l0 0c73.94739 0 144.86603 30.239899 197.15472 84.06726c52.288696 53.827362 81.664185 126.83298 81.664185 202.95633l0 0c0 158.5188 -124.83148 287.02362 -278.8189 287.02362l0 0c-153.98743 0 -278.8189 -128.50482 -278.8189 -287.02362z" fill-rule="evenodd"/><path stroke="#000000" stroke-width="24.0" stroke-linejoin="round" stroke-linecap="butt" d="m360.17584 657.7897l0 0c0 -158.51874 124.83148 -287.0236 278.8189 -287.0236l0 0c73.94739 0 144.86603 30.239899 197.15472 84.06726c52.288696 53.827362 81.664185 126.83298 81.664185 202.95633l0 0c0 158.5188 -124.83148 287.02362 -278.8189 287.02362l0 0c-153.98743 0 -278.8189 -128.50482 -278.8189 -287.02362z" fill-rule="evenodd"/><path fill="#000000" fill-opacity="0.0" d="m557.8609 657.7903l0 0c0 -46.131042 36.32483 -83.52759 81.13385 -83.52759l0 0c21.518066 0 42.154724 8.800171 57.3703 24.46466c15.215576 15.664429 23.76355 36.910034 23.76355 59.062927l0 0c0 46.13098 -36.32483 83.52753 -81.13385 83.52753l0 0c-44.80902 0 -81.13385 -37.396545 -81.13385 -83.52753z" fill-rule="evenodd"/><path stroke="#000000" stroke-width="24.0" stroke-linejoin="round" stroke-linecap="butt" d="m557.8609 657.7903l0 0c0 -46.131042 36.32483 -83.52759 81.13385 -83.52759l0 0c21.518066 0 42.154724 8.800171 57.3703 24.46466c15.215576 15.664429 23.76355 36.910034 23.76355 59.062927l0 0c0 46.13098 -36.32483 83.52753 -81.13385 83.52753l0 0c-44.80902 0 -81.13385 -37.396545 -81.13385 -83.52753z" fill-rule="evenodd"/><path fill="#000000" fill-opacity="0.0" d="m638.99475 370.76608l0 -288.44095" fill-rule="evenodd"/><path stroke="#000000" stroke-width="24.0" stroke-linejoin="round" stroke-linecap="butt" d="m638.99475 370.76608l0 -288.44095" fill-rule="evenodd"/><path fill="#000000" fill-opacity="0.0" d="m638.99475 1233.2704l0 -288.47247" fill-rule="evenodd"/><path stroke="#000000" stroke-width="24.0" stroke-linejoin="round" stroke-linecap="butt" d="m638.99475 1233.2704l0 -288.47247" fill-rule="evenodd"/><path fill="#000000" fill-opacity="0.0" d="m1035.1862 1064.7161l-338.83466 -347.87402" fill-rule="evenodd"/><path stroke="#000000" stroke-width="24.0" stroke-linejoin="round" stroke-linecap="butt" d="m1035.1862 1064.7161l-338.83466 -347.87402" fill-rule="evenodd"/><path fill="#000000" fill-opacity="0.0" d="m1199.294 657.79004l-281.4803 0" fill-rule="evenodd"/><path stroke="#000000" stroke-width="24.0" stroke-linejoin="round" stroke-linecap="butt" d="m1199.294 657.79004l-281.4803 0" fill-rule="evenodd"/><path fill="#000000" fill-opacity="0.0" d="m1035.1862 250.864l-338.83466 347.87402" fill-rule="evenodd"/><path stroke="#000000" stroke-width="24.0" stroke-linejoin="round" stroke-linecap="butt" d="m1035.1862 250.864l-338.83466 347.87402" fill-rule="evenodd"/><path fill="#000000" fill-opacity="0.0" d="m242.80338 250.864l338.83463 347.87402" fill-rule="evenodd"/><path stroke="#000000" stroke-width="24.0" stroke-linejoin="round" stroke-linecap="butt" d="m242.80338 250.864l338.83463 347.87402" fill-rule="evenodd"/><path fill="#000000" fill-opacity="0.0" d="m78.69554 657.79004l281.4803 0" fill-rule="evenodd"/><path stroke="#000000" stroke-width="24.0" stroke-linejoin="round" stroke-linecap="butt" d="m78.69554 657.79004l281.4803 0" fill-rule="evenodd"/><path fill="#000000" fill-opacity="0.0" d="m242.80338 1064.7161l338.83463 -347.87402" fill-rule="evenodd"/><path stroke="#000000" stroke-width="24.0" stroke-linejoin="round" stroke-linecap="butt" d="m242.80338 1064.7161l338.83463 -347.87402" fill-rule="evenodd"/><path fill="#000000" d="m456.0 263.27036l0 0c0 -15.463989 12.536041 -28.000015 28.0 -28.000015l0 0c7.426056 0 14.547974 2.949997 19.79898 8.201004c5.2510376 5.2510223 8.201019 12.37294 8.201019 19.799011l0 0c0 15.463959 -12.536041 28.0 -28.0 28.0l0 0c-15.463959 0 -28.0 -12.536041 -28.0 -28.0z" fill-rule="evenodd"/><path fill="#000000" d="m765.9895 268.0l0 0c0 -15.463974 12.536011 -28.0 28.0 -28.0l0 0c7.4260864 0 14.547974 2.949997 19.799011 8.201004c5.2509766 5.2510223 8.200989 12.37294 8.200989 19.798996l0 0c0 15.463959 -12.536011 28.0 -28.0 28.0l0 0c-15.463989 0 -28.0 -12.536041 -28.0 -28.0z" fill-rule="evenodd"/><path fill="#000000" d="m456.0 1051.0342l0 0c0 -15.463989 12.536041 -28.000061 28.0 -28.000061l0 0c7.426056 0 14.547974 2.9500122 19.79898 8.200989c5.2510376 5.2510986 8.201019 12.372925 8.201019 19.799072l0 0c0 15.463867 -12.536041 28.0 -28.0 28.0l0 0c-15.463959 0 -28.0 -12.536133 -28.0 -28.0z" fill-rule="evenodd"/><path fill="#000000" d="m765.9895 1051.0342l0 0c0 -15.463989 12.536011 -28.000061 28.0 -28.000061l0 0c7.4260864 0 14.547974 2.9500122 19.799011 8.200989c5.2509766 5.2510986 8.200989 12.372925 8.200989 19.799072l0 0c0 15.463867 -12.536011 28.0 -28.0 28.0l0 0c-15.463989 0 -28.0 -12.536133 -28.0 -28.0z" fill-rule="evenodd"/><path fill="#000000" d="m249.3084 468.7953l0 0c15.463974 0 28.000015 12.536011 28.000015 28.0l0 0c0 7.426056 -2.9500122 14.547974 -8.201019 19.79895c-5.251007 5.2510376 -12.372925 8.20105 -19.798996 8.20105l0 0c-15.463974 0 -28.0 -12.536011 -28.0 -28.0l0 0c0 -15.463989 12.536026 -28.0 28.0 -28.0z" fill-rule="evenodd"/><path fill="#000000" d="m249.3084 788.7848l0 0c15.463974 0 28.000015 12.536011 28.000015 28.0l0 0c0 7.4260254 -2.9500122 14.547974 -8.201019 19.79895c-5.251007 5.2510376 -12.372925 8.20105 -19.798996 8.20105l0 0c-15.463974 0 -28.0 -12.536011 -28.0 -28.0l0 0c0 -15.463989 12.536026 -28.0 28.0 -28.0z" fill-rule="evenodd"/><path fill="#000000" d="m1028.6785 469.7953l0 0c15.463989 0 28.0 12.536011 28.0 28.0l0 0c0 7.426056 -2.9499512 14.547974 -8.20105 19.79895c-5.2509766 5.2510376 -12.372925 8.20105 -19.79895 8.20105l0 0c-15.463989 0 -28.0 -12.536011 -28.0 -28.0l0 0c0 -15.463989 12.536011 -28.0 28.0 -28.0z" fill-rule="evenodd"/><path fill="#000000" d="m1028.6785 789.7848l0 0c15.463989 0 28.0 12.536011 28.0 28.0l0 0c0 7.4260254 -2.9499512 14.547974 -8.20105 19.79895c-5.2509766 5.2510376 -12.372925 8.20105 -19.79895 8.20105l0 0c-15.463989 0 -28.0 -12.536011 -28.0 -28.0l0 0c0 -15.463989 12.536011 -28.0 28.0 -28.0z" fill-rule="evenodd"/><path fill="#000000" d="m185.30971 571.79004l0 0c0 -15.463989 12.536026 -28.0 28.0 -28.0l0 0l0 0c7.426071 0 14.547974 2.9499512 19.798996 8.200989c5.2510223 5.2510376 8.201004 12.372925 8.201004 19.799011l0 172.0c0 15.463989 -12.536026 28.0 -28.0 28.0l0 0l0 0c-15.463974 0 -28.0 -12.536011 -28.0 -28.0z" fill-rule="evenodd"/><path fill="#000000" d="m1034.5538 571.79004l0 0c0 -15.463989 12.536011 -28.0 28.0 -28.0l0 0l0 0c7.4260254 0 14.547974 2.9499512 19.79895 8.200989c5.2509766 5.2510376 8.20105 12.372925 8.20105 19.799011l0 172.0c0 15.463989 -12.536011 28.0 -28.0 28.0l0 0l0 0c-15.463989 0 -28.0 -12.536011 -28.0 -28.0z" fill-rule="evenodd"/><path fill="#000000" d="m213.30963 613.17584l0 0c24.639725 0 44.614166 19.974426 44.614166 44.614197l0 0c0 11.832397 -4.7003937 23.180176 -13.067184 31.546997c-8.3667755 8.36676 -19.71457 13.067139 -31.546982 13.067139l0 0c-24.639725 0 -44.614166 -19.974426 -44.614166 -44.614136l0 0c0 -24.63977 19.974442 -44.614197 44.614166 -44.614197z" fill-rule="evenodd"/><path fill="#000000" d="m1062.5537 613.17584l0 0c24.63977 0 44.614136 19.974426 44.614136 44.614197l0 0c0 11.832397 -4.7003174 23.180176 -13.067139 31.546997c-8.366821 8.36676 -19.7146 13.067139 -31.546997 13.067139l0 0c-24.63977 0 -44.614136 -19.974426 -44.614136 -44.614136l0 0c0 -24.63977 19.974365 -44.614197 44.614136 -44.614197z" fill-rule="evenodd"/><path fill="#000000" fill-opacity="0.0" d="m536.6168 739.7008l220.75586 0l0 210.70862l-220.75586 0z" fill-rule="evenodd"/><path fill="#000000" d="m711.8306 883.6645q2.5 3.21875 1.21875 5.875q-1.28125 2.65625 -2.625 4.65625q-0.921875 -0.1875 -0.65625 1.0q-7.265625 3.390625 -14.484375 2.71875q-7.203125 -0.65625 -13.671875 -3.8125q-6.453125 -3.140625 -11.0 -8.0q-5.46875 -12.3125 -11.5625 -23.4375q-6.09375 -11.140625 -10.578125 -22.0q1.4375 1.171875 1.0625 1.734375q-0.359375 0.5625 -0.875 0.65625q-2.265625 10.296875 -6.390625 19.28125q-4.125 8.984375 -9.78125 16.328125q-5.15625 6.546875 -11.671875 11.609375q-6.515625 5.046875 -16.515625 9.875q-0.453125 -2.453125 -0.578125 -1.859375q-0.109375 0.59375 -0.90625 0.828125q-0.78125 0.15625 -1.59375 0.3125q-0.796875 0.15625 -4.421875 0.15625q-0.75 -5.6875 1.125 -6.25q1.875 -0.546875 3.0625 -0.75q0.375 0 0.515625 2.765625q-1.65625 2.53125 -2.28125 2.609375q-0.625 0.09375 -1.15625 0.296875q-1.78125 0.4375 -3.40625 0.1875q-1.609375 -0.234375 -7.71875 -6.796875q6.046875 -0.703125 6.59375 -1.03125q0.546875 -0.328125 1.28125 -0.578125q4.34375 -2.84375 9.25 -6.1875q4.921875 -3.34375 9.234375 -7.21875q4.328125 -3.875 7.34375 -8.75q1.734375 1.28125 -0.515625 1.171875q-0.328125 -1.890625 0.21875 -2.921875q0.84375 -1.875 2.296875 -2.78125q1.453125 -0.90625 1.640625 -1.21875q0.078125 -0.140625 -0.0625 -1.25q-0.140625 -1.109375 0.90625 -2.71875q1.296875 -2.21875 3.0 -3.640625q1.71875 -1.4375 1.796875 -3.09375q2.578125 0.0625 1.671875 2.46875q-3.390625 -0.703125 -2.515625 -4.03125q0.5625 -2.25 1.875 -3.703125q1.3125 -1.453125 1.703125 -2.5q1.296875 -2.953125 1.421875 -6.171875q0.125 -3.21875 1.03125 -3.359375q-2.78125 1.046875 -9.125 1.828125q-6.328125 0.765625 -12.3125 3.25q-8.34375 -2.375 -11.953125 -7.03125q-3.59375 -4.65625 -6.828125 -13.1875q5.828125 -3.53125 9.3125 -2.078125q3.484375 1.4375 5.796875 2.890625q0.546875 0.328125 0.015625 1.171875q4.1875 -0.53125 9.171875 -0.90625q4.984375 -0.390625 10.015625 -0.921875q2.671875 -0.265625 5.234375 -0.546875q2.5625 -0.28125 3.21875 0.625q-0.9375 -0.09375 -0.875 -1.875q0.078125 -1.78125 0.078125 -3.40625q0.140625 -2.484375 0.0625 -4.65625q-0.0625 -2.1875 -0.46875 -4.625q0 -0.828125 0.0625 -1.359375q0.078125 -0.53125 0.078125 -1.03125q0.125 -1.078125 0.125 -0.921875q-0.265625 -1.3125 -1.078125 -2.796875q-0.796875 -1.5 -1.796875 -3.015625q-1.578125 -2.4375 -2.921875 -5.28125q-1.34375 -2.84375 -0.53125 -9.203125q8.21875 -0.203125 12.5 2.828125q4.28125 3.015625 7.8125 6.0q0.703125 0.5625 1.3125 1.109375q0.609375 0.53125 2.234375 1.859375q0 2.71875 0.0625 4.125q0.078125 1.390625 0.203125 2.84375q0.28125 4.5 0.34375 9.40625q0.0625 4.890625 -0.40625 7.546875q0.78125 0.078125 4.4375 -0.234375q3.671875 -0.328125 7.328125 -0.734375q1.859375 -0.265625 3.765625 -0.453125q1.921875 -0.203125 2.796875 0.75q-0.609375 -1.296875 0.09375 -1.59375q0.703125 -0.3125 0.78125 -3.09375q6.953125 0.671875 11.4375 1.75q4.484375 1.0625 8.53125 3.359375q4.0625 2.28125 6.25 6.375q1.40625 2.21875 0.734375 3.734375q-0.65625 1.515625 -1.4375 2.28125q-0.734375 -0.375 -0.859375 1.546875q-9.96875 -0.46875 -18.796875 0.265625q-8.8125 0.71875 -17.765625 1.78125q-1.84375 0.140625 -3.84375 0.40625q-2.0 0.265625 -2.203125 -1.359375q5.21875 5.234375 11.734375 12.9375q6.53125 7.6875 14.5 14.171875q7.984375 6.484375 18.421875 11.546875l0.078125 1.5625q2.328125 1.140625 5.390625 5.046875q3.078125 3.890625 6.0 6.84375z" fill-rule="nonzero"/><path fill="#000000" fill-opacity="0.0" d="m536.6168 374.26248l220.75586 0l0 210.70865l-220.75586 0z" fill-rule="evenodd"/><path fill="#000000" d="m712.2525 477.39804q0.1875 3.84375 -1.453125 6.296875q-1.640625 2.4375 -3.53125 4.609375q-0.671875 0.921875 -1.4375 1.828125q-0.765625 0.890625 -3.484375 5.1875q-1.578125 -3.828125 -1.59375 -3.265625q-0.015625 0.546875 -0.90625 1.234375q-0.765625 0.4375 -2.0 1.265625q-1.234375 0.8125 -4.09375 -0.625q-0.671875 -1.578125 -2.234375 -2.015625q-1.546875 -0.4375 -4.359375 -1.484375q-2.796875 -1.046875 -3.25 -2.40625q-0.09375 0.015625 -2.6875 1.21875q-2.578125 1.1875 -2.9375 0.390625q1.53125 2.421875 2.21875 8.15625q0.703125 5.71875 0.03125 11.625q-0.65625 5.8906555 -5.1875 11.4219055q-7.609375 -0.875 -12.9375 -3.03125q-5.3125 -2.15625 -6.96875 -6.0937805q1.890625 0.03125 1.890625 1.7187805q0 1.6875 0 3.5625q0 6.09375 -0.4375 12.421875q-0.421875 6.328125 -3.171875 11.671875q-1.5 2.125 -4.296875 2.40625q-2.796875 0.296875 -4.453125 -2.671875q-2.046875 -5.421875 -2.8125 -10.9375q-0.765625 -5.515625 -0.765625 -11.296875q0 -2.703125 0.0625 -5.390625q0.078125 -2.7031555 0.203125 -5.5312805q0.265625 -5.6875 0.328125 -11.375q0.078125 -5.703125 -0.3125 -9.1875q-0.265625 -0.015625 -2.265625 0.15625q-1.984375 0.15625 -1.65625 -0.703125q1.78125 2.84375 1.046875 8.15625q-0.71875 5.3125 -1.796875 10.0625q-0.796875 3.78125 -1.265625 6.65625q-0.453125 2.8750305 1.640625 7.3594055q-9.359375 2.59375 -13.0625 -0.546875q-3.703125 -3.15625 -6.578125 -6.4531555q-0.796875 -1.0625 -1.5 -1.875q-0.703125 -0.828125 -6.78125 -6.0q0 0 5.5 -0.28125q5.515625 -0.28125 5.0 1.96875q0 -2.53125 0.984375 -5.21875q0.984375 -2.6875 0.984375 -5.53125q0 -3.609375 -1.453125 -6.4375q-1.4375 -2.84375 -11.234375 -5.796875q13.203125 -6.1875 20.09375 -7.078125q6.90625 -0.90625 12.171875 -1.09375q-0.34375 0.171875 -0.765625 -1.75q-0.40625 -1.9375 0.640625 -2.234375q-1.03125 1.15625 -3.890625 1.296875q-2.859375 0.125 -5.421875 0.125q-5.328125 0.140625 -9.671875 0.5625q-4.34375 0.421875 -6.796875 2.0625q-0.90625 4.765625 -3.03125 9.703125q-2.125 4.921875 -3.53125 8.3125q0.53125 0.765625 1.390625 3.03125q0.875 2.265625 0.4375 4.4375q-0.5625 2.21875 -2.546875 3.4375q-1.96875 1.203125 -5.9375 1.421875q-5.296875 -2.640625 -7.78125 -6.28125q-2.46875 -3.65625 -6.53125 -6.765625q0 -1.890625 0 -2.21875q0 -0.328125 0 -0.59375q0 -0.546875 0 -1.140625q0 -0.59375 0 -7.375q4.46875 3.125 3.96875 3.171875q1.9375 -1.859375 3.59375 -5.890625q1.671875 -4.03125 3.140625 -6.359375q0.609375 0.96875 -1.6875 0.484375q-2.296875 -0.5 -4.484375 -6.140625q8.28125 -3.421875 14.375 -4.390625q6.09375 -0.984375 12.59375 -1.390625q1.59375 -0.140625 3.828125 -0.265625q2.234375 -0.140625 2.421875 0.8125q0.203125 0.953125 0.203125 0.953125q-1.890625 1.171875 -3.109375 -2.625q-1.203125 -3.796875 -1.578125 -7.078125q-0.375 -3.296875 -0.5 -3.734375q0.296875 0.125 -0.65625 0.34375q-0.953125 0.203125 -2.046875 0.625q-1.5 0.296875 -2.9375 0.640625q-1.4375 0.328125 -3.171875 -0.09375q-3.03125 -0.765625 -4.71875 -2.859375q-1.671875 -2.09375 -2.640625 -3.671875q-0.953125 -1.59375 -5.53125 -3.6875q4.0625 -1.546875 3.140625 -1.5q-0.90625 0.03125 -1.0 -0.375q-0.28125 -0.6875 -0.625 -2.0625q-0.34375 -1.375 2.53125 -4.25q6.796875 2.421875 15.171875 2.359375q8.390625 -0.0625 17.28125 -0.609375q3.078125 -0.125 6.03125 -0.25q2.96875 -0.140625 3.453125 -0.140625q-0.03125 0.203125 -0.296875 -0.921875q-0.25 -1.140625 -0.921875 -1.875q-1.328125 -1.765625 -3.921875 -2.8125q-2.578125 -1.046875 -8.25 -4.828125q8.015625 -6.828125 13.59375 -6.515625q5.578125 0.296875 11.390625 1.390625q0.875 0.1875 2.03125 0.609375q3.765625 3.75 3.40625 7.40625q-0.359375 3.65625 -2.296875 6.59375q-1.9375 2.9375 -3.125 2.15625q2.65625 -1.09375 8.0 -1.65625q5.34375 -0.578125 10.34375 -1.390625q0.828125 -0.125 1.734375 -0.25q0.921875 -0.140625 1.734375 -0.28125q3.6875 -0.484375 7.296875 0.890625q3.609375 1.375 6.796875 3.5q3.1875 2.125 9.1875 7.09375q-7.859375 3.046875 -12.5625 3.34375q-4.703125 0.28125 -8.96875 0.40625q-4.25 0.125 -5.578125 -0.53125q0.53125 -1.71875 2.109375 -1.34375q1.578125 0.375 1.578125 4.71875q-0.9375 3.15625 -2.421875 5.015625q-1.46875 1.859375 -2.5625 3.328125q-1.078125 1.46875 -1.0625 1.390625q0.59375 0.3125 3.265625 -0.0625q2.6875 -0.390625 5.234375 -1.265625q1.125 -0.28125 2.21875 -0.59375q1.109375 -0.3125 2.046875 -0.3125q2.21875 -0.171875 5.796875 0.71875q3.59375 0.875 7.234375 2.4375q3.65625 1.5625 5.5 3.578125q1.890625 1.5 1.15625 2.359375q-0.734375 0.859375 0.09375 0.265625q2.0625 2.828125 4.625 5.546875q2.5625 2.71875 2.734375 6.796875zm-51.78125 -30.859375q-2.578125 -0.375 -8.90625 -0.109375q-6.3125 0.25 -11.90625 0.65625q-2.78125 0.140625 -4.265625 -0.53125q-1.484375 -0.671875 -1.484375 -0.671875q1.484375 -0.890625 4.015625 4.25q2.546875 5.140625 2.859375 8.21875q2.0625 -0.125 7.03125 -0.25q4.984375 -0.140625 8.09375 0.15625q-0.484375 -0.328125 0.234375 -1.984375q0.71875 -1.65625 1.53125 -3.28125q1.140625 -2.4375 1.9375 -4.515625q0.8125 -2.09375 0.859375 -1.9375zm26.90625 22.8125q-3.03125 -0.921875 -9.078125 -0.59375q-6.03125 0.3125 -13.046875 1.109375q-2.546875 0.265625 -5.078125 0.53125q-2.53125 0.265625 -4.65625 -1.8125q2.34375 -0.5 2.34375 1.21875q0 1.71875 0 3.046875q0 0.9375 0 1.640625q0 0.703125 -1.875 0.828125q1.171875 -1.609375 2.96875 -2.171875q1.8125 -0.578125 4.046875 -1.890625q5.578125 1.140625 10.96875 2.21875q5.40625 1.0625 10.6875 5.390625q0 2.046875 -0.46875 3.453125q-0.3125 0.0625 -1.171875 -0.234375q-0.859375 -0.296875 -1.5 -0.859375q-1.109375 -0.90625 -0.4375 -1.71875q0.6875 -0.8125 1.40625 -1.6875q1.890625 -2.0 3.4375 -4.4375q1.5625 -2.453125 1.453125 -4.03125zm-24.09375 32.171875q-0.046875 -2.421875 -0.546875 -7.765625q-0.484375 -5.359375 -1.515625 -7.46875l-4.3125 0q-0.109375 0.46875 -0.109375 3.484375q0 3.015625 0.125 5.96875q0.140625 1.65625 0.140625 3.25q0 1.59375 -0.609375 1.59375q0.90625 -0.296875 3.796875 0.03125q2.90625 0.3125 3.03125 0.90625zm-64.34375 -20.90625q1.640625 1.453125 0.125 4.25q-1.515625 2.796875 -3.53125 1.84375q-0.59375 -0.71875 -0.84375 -1.8125q-0.234375 -1.109375 0.421875 -2.21875q0.671875 -1.125 1.96875 -1.703125q1.3125 -0.578125 1.859375 -0.359375z" fill-rule="nonzero"/><path fill="#000000" fill-opacity="0.0" d="m354.0 552.4357l220.75592 0l0 210.70868l-220.75592 0z" fill-rule="evenodd"/><path fill="#000000" d="m531.3701 693.6182q-3.625 2.703125 -6.453125 3.578125q-2.828125 0.859375 -5.859375 0.859375q-4.09375 0.15625 -8.171875 -0.90625q-4.0625 -1.078125 -9.359375 -3.171875q-0.3125 -1.5625 -0.953125 -1.90625q-0.625 -0.359375 -2.078125 -1.625q-1.453125 -1.265625 -1.203125 -2.40625q-1.671875 -0.265625 -2.921875 -2.421875q-1.234375 -2.171875 -2.03125 -3.59375q-0.796875 -1.4375 -2.671875 -2.390625q-3.765625 -6.890625 -6.984375 -12.890625q-3.21875 -6.015625 -8.21875 -10.71875q-0.734375 -2.1875 -1.03125 -2.96875q-0.296875 -0.796875 1.421875 -1.796875q1.71875 5.265625 1.65625 14.9375q-0.0625 9.671875 0.59375 18.875q0 0.46875 0.046875 0.9375q0.0625 0.46875 0.203125 1.1875q0.28125 4.09375 0.421875 9.140625q0.140625 5.03125 -1.25 10.0625q-1.390625 5.03125 -6.828125 8.625q-8.765625 -1.8125 -14.546875 -6.03125q-5.78125 -4.203125 -10.25 -9.625q-4.46875 -5.421875 -15.0 -19.140625q0 0 7.359375 3.203125q7.375 3.1875 9.21875 3.984375q3.46875 1.40625 7.4375 2.625q3.984375 1.21875 5.984375 1.53125q0.96875 -1.796875 1.515625 -6.1875q0.5625 -4.390625 0.5625 -9.421875q0 -2.46875 -0.140625 -5.0625q-0.125 -2.609375 -0.375 -5.25q-0.28125 -4.359375 -0.421875 -8.828125q-0.125 -4.46875 0.9375 -7.828125q0.453125 1.375 0.171875 1.4375q-0.265625 0.0625 -0.765625 0.21875q-0.5 0.25 -1.046875 0.453125q-0.546875 0.1875 -1.046875 -1.25q-6.109375 13.765625 -15.65625 26.125q-9.546875 12.34375 -29.296875 24.375q3.390625 -8.5625 5.15625 -8.8125q1.78125 -0.25 1.78125 -0.25q-2.140625 5.390625 -7.203125 5.640625q-5.0625 0.234375 -12.3125 -5.78125q12.375 -6.375 18.84375 -13.03125q6.484375 -6.671875 11.71875 -14.96875q5.234375 -8.3125 10.34375 -14.484375q0.234375 1.625 -2.640625 2.015625q-2.859375 0.375 -4.625 1.046875q-1.765625 0.65625 -2.890625 3.375q-7.3125 0.625 -11.15625 -1.5q-3.828125 -2.125 -5.90625 -5.734375q-2.0625 -3.609375 -4.1875 -10.859375q5.578125 -0.34375 7.71875 -0.28125q2.15625 0.0625 4.328125 0.203125q5.0625 0.265625 10.140625 0.140625q5.09375 -0.125 10.75 -0.03125q-2.9375 0.359375 -2.0625 -1.875q0.875 -2.234375 3.078125 -4.828125q5.5625 1.359375 9.34375 2.421875q3.796875 1.0625 6.953125 3.265625q3.171875 2.203125 1.640625 4.671875q0 0 -1.125 -0.03125q-1.109375 -0.046875 -1.109375 -1.4375q0.265625 -6.484375 -0.53125 -13.125q-0.78125 -6.640625 -1.921875 -12.140625q-2.0 -2.109375 -4.765625 -5.09375q-2.765625 -2.984375 -4.03125 -11.53125q4.015625 0 4.453125 0.046875q0.453125 0.046875 0.828125 -0.046875q1.765625 0 3.1875 0.234375q1.421875 0.234375 0.953125 1.984375q4.375 -2.671875 8.0 -0.84375q3.625 1.8125 6.625 3.953125q1.0 0.765625 2.015625 1.421875q1.015625 0.640625 3.40625 1.71875q0.78125 5.671875 0.4375 9.8125q-0.34375 4.140625 -1.03125 8.46875q-0.515625 4.1875 -0.96875 8.625q-0.453125 4.4375 -0.15625 7.21875q0.875 0.234375 3.28125 -0.296875q2.40625 -0.546875 4.84375 -1.828125q3.46875 -2.0 6.859375 -4.84375q3.40625 -2.859375 5.1875 -3.90625q0.015625 0.109375 -0.984375 -1.03125q-0.984375 -1.15625 -5.21875 -5.78125q8.875 -2.84375 14.375 -2.0q5.515625 0.84375 9.65625 4.40625q4.15625 3.5625 3.6875 12.875q-2.625 -2.5 -1.375 -1.953125q1.25 0.546875 0.40625 2.140625q-8.078125 4.546875 -16.03125 8.59375q-7.9375 4.03125 -17.4375 5.78125l-0.1875 -1.984375q3.34375 1.390625 7.671875 4.65625q4.34375 3.265625 6.828125 6.828125q0.890625 0 2.171875 0.890625q1.28125 0.875 2.171875 1.640625q0.828125 0.6875 1.3125 1.015625q0.5 0.328125 5.71875 -0.40625q-2.890625 3.84375 -2.875 3.53125q0.03125 -0.328125 0.671875 -1.25q2.296875 1.390625 0.28125 2.953125q5.171875 -0.265625 10.1875 2.390625q5.015625 2.65625 8.265625 6.921875q2.140625 2.46875 3.3125 5.734375q1.171875 3.265625 1.171875 8.609375z" fill-rule="nonzero"/><path fill="#000000" fill-opacity="0.0" d="m702.0 552.43567l220.75592 0l0 210.70868l-220.75592 0z" fill-rule="evenodd"/><path fill="#000000" d="m876.08887 622.5869q-4.03125 -1.234375 -5.953125 -1.40625q-1.921875 -0.1875 -4.125 -0.1875q-3.25 -0.15625 -6.640625 -0.625q-3.390625 -0.46875 -3.71875 -3.546875q1.09375 0.890625 0.875 1.859375q-0.21875 0.96875 -2.625 1.4375q-4.421875 -0.984375 -9.125 -1.046875q-4.6875 -0.078125 -9.9375 0.0625q-3.0625 0.125 -6.265625 0.203125q-3.1875 0.0625 -4.84375 -1.734375q1.859375 0.109375 1.578125 1.796875q-0.28125 1.6875 -0.90625 3.359375q-0.46875 1.296875 -0.796875 2.765625q-0.3125 1.46875 -0.265625 1.84375q3.296875 0.921875 7.953125 3.0625q4.65625 2.125 9.578125 2.421875q5.5625 4.578125 9.09375 10.078125q3.546875 5.5 5.015625 15.078125q-6.90625 3.6875 -11.5 1.71875q-4.59375 -1.96875 -8.28125 -5.734375q-3.6875 -3.765625 -6.96875 -7.578125q-2.515625 -3.046875 -4.671875 -5.375q-2.140625 -2.328125 -1.21875 -3.046875q0.375 7.9375 0.5 20.0625q0.140625 12.109375 0.53125 24.078125q0.265625 8.28125 0.46875 16.203125q0.203125 7.90625 -0.140625 16.671875q-5.078125 1.78125 -8.234375 0.375q-3.15625 -1.390625 -5.40625 -3.796875q-2.25 -2.40625 -3.75 -5.234375q-1.484375 -2.8125 -1.65625 -5.234375q0 -1.71875 0.671875 -3.0q0.671875 -1.28125 0.875 -2.09375q0.21875 -0.6875 0.390625 -3.578125q0.1875 -2.90625 0.390625 -7.0q0.203125 -4.109375 0.265625 -8.375q0.0625 -4.28125 -0.0625 -7.546875q-0.140625 -5.546875 -0.078125 -10.9375q0.078125 -5.390625 0.34375 -10.328125q0.125 -6.75 0.1875 -12.6875q0.078125 -5.9375 -0.6875 -10.671875q-0.15625 -1.171875 -1.328125 -2.4375q-1.15625 -1.28125 -1.734375 -2.078125q-0.96875 -0.25 -3.0 0.140625q-2.015625 0.390625 -4.078125 1.0q-1.578125 0.578125 -3.359375 0.9375q-1.765625 0.359375 -3.640625 0.53125q-1.046875 0 -1.984375 -0.265625q-0.3125 0 -0.859375 -0.0625q-0.53125 -0.078125 -0.65625 -0.078125q-1.875 0.3125 -4.015625 1.171875q-2.140625 0.84375 -4.1875 1.890625q-2.96875 1.40625 -6.015625 2.5q-3.03125 1.09375 -6.234375 0.359375q-3.625 -0.84375 -5.96875 -3.34375q-2.34375 -2.515625 -4.046875 -4.90625q-1.703125 -2.390625 -7.40625 -5.96875q4.203125 -2.78125 4.28125 -3.1875q0.078125 -0.421875 2.828125 -4.859375q2.9375 0.96875 3.890625 1.34375q0.96875 0.375 1.78125 0.796875q1.703125 0.671875 2.875 0.953125q1.1875 0.28125 2.84375 -1.046875q7.9375 -0.296875 15.578125 -0.828125q7.640625 -0.53125 15.359375 -1.0625q11.484375 -0.9375 22.6875 -1.59375q11.203125 -0.671875 20.359375 -0.40625q0.359375 0 1.03125 0q0.921875 0 1.40625 0q0.484375 0 1.515625 -0.625q2.296875 0.65625 3.359375 0.375q1.0625 -0.28125 2.09375 -0.734375q0.828125 -0.328125 1.75 -0.609375q0.921875 -0.28125 1.765625 -0.28125q3.796875 -0.296875 8.140625 0.8125q4.359375 1.109375 8.140625 3.3125q3.78125 2.1875 6.0625 5.625q2.28125 3.421875 -0.09375 10.3125z" fill-rule="nonzero"/><path fill="#000000" fill-opacity="0.0" d="m36.28609 657.79004l0 0c0 -341.88602 269.84186 -619.03937 602.7087 -619.03937l0 0c159.84827 0 313.1496 65.22003 426.17932 181.31244c113.02991 116.09239 176.5293 273.5475 176.5293 437.72693l0 0c0 341.886 -269.8418 619.0393 -602.7086 619.0393l0 0c-332.8668 0 -602.7087 -277.15332 -602.7087 -619.0393z" fill-rule="evenodd"/><path stroke="#000000" stroke-width="24.0" stroke-linejoin="round" stroke-linecap="butt" d="m36.28609 657.79004l0 0c0 -341.88602 269.84186 -619.03937 602.7087 -619.03937l0 0c159.84827 0 313.1496 65.22003 426.17932 181.31244c113.02991 116.09239 176.5293 273.5475 176.5293 437.72693l0 0c0 341.886 -269.8418 619.0393 -602.7086 619.0393l0 0c-332.8668 0 -602.7087 -277.15332 -602.7087 -619.0393z" fill-rule="evenodd"/></g></svg>
